<svg xmlns="http://www.w3.org/2000/svg" version="1.1" xmlns:xlink="http://www.w3.org/1999/xlink" xmlns:svgjs="http://svgjs.com/svgjs" viewBox="0 0 64 64" class="fill-current"><g transform="matrix(2.6666666666666665,0,0,2.6666666666666665,0,0)"><path d="M12,0A8.009,8.009,0,0,0,4,8c0,3.51,5,12.025,7.148,15.524A1,1,0,0,0,12,24a.991.991,0,0,0,.852-.477C15,20.026,20,11.514,20,8A8.009,8.009,0,0,0,12,0Zm0,11.5A3.5,3.5,0,1,1,15.5,8,3.5,3.5,0,0,1,12,11.5Z" stroke="none" stroke-linecap="round" stroke-linejoin="round" stroke-width="0"></path></g></svg>